<mxfile host="app.diagrams.net" modified="2023-09-02T12:01:15.455Z" agent="Mozilla/5.0 (Macintosh; Intel Mac OS X 10_15_7) AppleWebKit/537.36 (KHTML, like Gecko) Chrome/115.0.0.0 Safari/537.36" version="21.7.2" etag="0Bdd1k52ioPgq5a947xC" type="github">
  <diagram name="Page-1" id="NvGcUyZ1FJXEg74DDzK-">
    <mxGraphModel>
      <root>
        <mxCell id="0" />
        <mxCell id="1" parent="0" />
      </root>
    </mxGraphModel>
  </diagram>
</mxfile>
